<svg width="18" height="22" viewBox="0 0 18 22" fill="none" xmlns="http://www.w3.org/2000/svg">
<path d="M12.0001 1.40002V5.00002C12.0001 5.66277 12.5373 6.20002 13.2001 6.20002H16.8001M5.40008 6.20002H7.80008M5.40008 9.80002H12.6001M5.40008 13.4H12.6001M15.0001 3.20002C14.466 2.72217 13.9118 2.1554 13.5619 1.7873C13.3291 1.54236 13.0074 1.40002 12.6695 1.40002H3.5998C2.27432 1.40002 1.19981 2.47453 1.1998 3.80001L1.19971 18.2C1.1997 19.5254 2.27421 20.6 3.5997 20.6L14.3997 20.6C15.7252 20.6 16.7997 19.5255 16.7998 18.2001L16.8001 5.47786C16.8001 5.17102 16.683 4.87606 16.4701 4.65516C16.0763 4.24667 15.4187 3.57454 15.0001 3.20002Z" stroke="white" stroke-width="2" stroke-linecap="round" stroke-linejoin="round"/>
</svg>
